# xmcd
#
# Track frame offsets:
#	150
#	12015
#	20315
#	29135
#	51957
#	65370
#	84097
#	94715
#	104800
#	118937
#	129247
#
# Disc length: 1900 seconds
#
# Revision: 1
# Processed by: cddbd v1.4PL0 Copyright (c) Steve Scherf et al.
# Submitted via: audiograbber 1.82.02
#
DISCID=8a076a0b
DTITLE=The Disturbingly Lonesome Cowboys - Diesel Dykes O' Dixie
DYEAR=1993
DGENRE=Country
TTITLE0=Diesel Dykes O' Dixie
TTITLE1=Goin' Down
TTITLE2=It's My Truck
TTITLE3='Till Death Do Us Part
TTITLE4=Whiskey Dick
TTITLE5=There Ain't Enough Whiskey
TTITLE6=I Ain't No Okla-Homo
TTITLE7=I WOnder Who's Gassin' Her Now
TTITLE8=Blood On My Knife
TTITLE9=God Don't Answer Prayers
TTITLE10=Ol' Blue
EXTD=
EXTT0=
EXTT1=
EXTT2=
EXTT3=
EXTT4=
EXTT5=
EXTT6=
EXTT7=
EXTT8=
EXTT9=
EXTT10=
PLAYORDER=
